<svg xmlns="http://www.w3.org/2000/svg" width="60" height="60" viewBox="0 0 60 60">
  <g id="Github" transform="translate(1 1)">
    <path id="Stroke-52" d="M51,28.695A23.536,23.536,0,0,1,34.984,51.021c-1.191.23-1.611-.5-1.611-1.133,0-.772.029-3.311.029-6.456a5.617,5.617,0,0,0-1.592-4.355c5.22-.586,10.7-2.573,10.7-11.612A9.1,9.1,0,0,0,40.1,21.146a8.46,8.46,0,0,0-.234-6.227s-1.963-.63-6.436,2.413a22.163,22.163,0,0,0-11.739,0c-4.473-3.042-6.446-2.413-6.446-2.413a8.464,8.464,0,0,0-.225,6.227A9.106,9.106,0,0,0,12.6,27.465c0,9.015,5.474,11.036,10.68,11.626a5.063,5.063,0,0,0-1.49,3.145c-1.338.606-4.732,1.646-6.822-1.953a4.932,4.932,0,0,0-3.589-2.422s-2.291-.029-.162,1.431c0,0,1.539.723,2.6,3.438,0,0,1.372,4.581,7.9,3.155.009,1.967.029,3.448.029,4,0,.625-.425,1.348-1.6,1.133A23.516,23.516,0,1,1,51,28.695Z" transform="translate(1 1)" fill="none" stroke="#b8b8b8" stroke-width="2" fill-rule="evenodd"/>
  </g>
</svg>
