<svg xmlns="http://www.w3.org/2000/svg" width="60" height="60" viewBox="0 0 60 60">
  <g id="Google" transform="translate(1 1)">
    <path id="Stroke-94" d="M7.994,39.238a23.354,23.354,0,0,0,3.357,5.051A23.875,23.875,0,0,0,35.68,51.6,22.007,22.007,0,0,0,44.8,46.544a21.612,21.612,0,0,0,5.056-7.129A26.189,26.189,0,0,0,52,28.733a19.7,19.7,0,0,0-.541-4.318H29.319v9.172H42.061a10.676,10.676,0,0,1-4.854,7.088,14.681,14.681,0,0,1-7.887,2.078,14.063,14.063,0,0,1-13.333-9.616l-7.993,6.1Z" fill="none" stroke="#b8b8b8" stroke-width="2" fill-rule="evenodd"/>
    <path id="Stroke-95" d="M15.982,33.116A14.015,14.015,0,0,1,15.3,29.38c-.011-.218-.031-.43-.031-.647s.02-.435.031-.653A13.992,13.992,0,0,1,29.319,14.708a13.75,13.75,0,0,1,8.747,3.129l6.912-6.9A23.695,23.695,0,0,0,5.572,28.08c-.005.218-.015.43-.015.653s.01.429.015.647a23.689,23.689,0,0,0,2.417,9.854l7.993-6.118Z" fill="none" stroke="#b8b8b8" stroke-width="2" fill-rule="evenodd"/>
    <path id="Stroke-96" d="M21.043,17.392a14.019,14.019,0,0,0-5.056,6.932L7.994,18.216a23.74,23.74,0,0,1,36.984-7.28" fill="none" stroke="#b8b8b8" stroke-width="2" fill-rule="evenodd"/>
    <path id="Stroke-97" d="M11.351,44.289a23.354,23.354,0,0,1-3.357-5.051l7.993-6.1a14.053,14.053,0,0,0,8.277,8.671" fill="none" stroke="#b8b8b8" stroke-width="2" fill-rule="evenodd"/>
    <path id="Stroke-98" d="M29.319,42.752a14.676,14.676,0,0,0,7.887-2.078l7.594,5.87A22,22,0,0,1,35.679,51.6a23.837,23.837,0,0,1-6.36.859" fill="none" stroke="#b8b8b8" stroke-width="2" fill-rule="evenodd"/>
    <path id="Stroke-153" d="M54,58H4a4,4,0,0,1-4-4V4A4,4,0,0,1,4,0H54a4,4,0,0,1,4,4V54a4,4,0,0,1-4,4Z" fill="none" stroke="#b8b8b8" stroke-linejoin="round" stroke-width="2" fill-rule="evenodd"/>
  </g>
</svg>
