<svg xmlns="http://www.w3.org/2000/svg" width="60" height="60" viewBox="0 0 60 60">
  <g id="Whatsapp" transform="translate(1 1)">
    <path id="Stroke-28" d="M42.342,38.414a5.735,5.735,0,0,0,.4-3.206c-.164-.289-.612-.448-1.29-.79s-3.982-1.969-4.6-2.186a1.3,1.3,0,0,0-1.661.5,28.693,28.693,0,0,1-1.8,2.393,1.459,1.459,0,0,1-1.627.255A16.87,16.87,0,0,1,26.33,32.04a20.468,20.468,0,0,1-3.751-4.66c-.39-.679-.038-1.074.275-1.44.337-.419.664-.717,1.006-1.112a4.117,4.117,0,0,0,.746-1.059,1.384,1.384,0,0,0-.1-1.252c-.164-.337-1.522-3.654-2.08-5-.448-1.074-.785-1.117-1.464-1.141-.231-.015-.491-.029-.775-.029a3.368,3.368,0,0,0-2.363.828A7.381,7.381,0,0,0,15.465,22.8c0,3.317,2.416,6.524,2.744,6.971s4.713,7.352,11.5,10.163c5.315,2.2,6.89,2,8.1,1.738,1.767-.38,3.977-1.685,4.535-3.259ZM28.9,5.783a23.109,23.109,0,1,1-12.71,42.4L7.3,51.018l2.879-8.584a23.1,23.1,0,0,1,18.7-36.651Z" fill="rgba(122,62,62,0)" stroke="#b8b8b8" stroke-width="2" fill-rule="evenodd"/>
  </g>
</svg>
